<?xml version="1.0" encoding="UTF-8" standalone="no"?>
<!-- Created with Inkscape (http://www.inkscape.org/) -->

<svg
   xmlns:dc="http://purl.org/dc/elements/1.1/"
   xmlns:cc="http://creativecommons.org/ns#"
   xmlns:rdf="http://www.w3.org/1999/02/22-rdf-syntax-ns#"
   xmlns:svg="http://www.w3.org/2000/svg"
   xmlns="http://www.w3.org/2000/svg"
   xmlns:sodipodi="http://sodipodi.sourceforge.net/DTD/sodipodi-0.dtd"
   xmlns:inkscape="http://www.inkscape.org/namespaces/inkscape"
   width="800.00006"
   height="800.00006"
   viewBox="0 0 211.66669 211.66669"
   version="1.1"
   id="svg885"
   inkscape:version="0.92.4 5da689c313, 2019-01-14"
   sodipodi:docname="favicon.svg">
  <defs
     id="defs879" />
  <sodipodi:namedview
     id="base"
     pagecolor="#ffffff"
     bordercolor="#666666"
     borderopacity="1.0"
     inkscape:pageopacity="0.0"
     inkscape:pageshadow="2"
     inkscape:zoom="0.35"
     inkscape:cx="-174.28568"
     inkscape:cy="217.1429"
     inkscape:document-units="mm"
     inkscape:current-layer="layer1"
     showgrid="false"
     fit-margin-top="0"
     fit-margin-left="0"
     fit-margin-right="0"
     fit-margin-bottom="0"
     units="px"
     inkscape:window-width="1278"
     inkscape:window-height="758"
     inkscape:window-x="0"
     inkscape:window-y="20"
     inkscape:window-maximized="1" />
  <metadata
     id="metadata882">
    <rdf:RDF>
      <cc:Work
         rdf:about="">
        <dc:format>image/svg+xml</dc:format>
        <dc:type
           rdf:resource="http://purl.org/dc/dcmitype/StillImage" />
        <dc:title></dc:title>
        <cc:license
           rdf:resource="http://creativecommons.org/licenses/by-sa/4.0/" />
        <dc:creator>
          <cc:Agent>
            <dc:title>Busto Bocanegra</dc:title>
          </cc:Agent>
        </dc:creator>
      </cc:Work>
      <cc:License
         rdf:about="http://creativecommons.org/licenses/by-sa/4.0/">
        <cc:permits
           rdf:resource="http://creativecommons.org/ns#Reproduction" />
        <cc:permits
           rdf:resource="http://creativecommons.org/ns#Distribution" />
        <cc:requires
           rdf:resource="http://creativecommons.org/ns#Notice" />
        <cc:requires
           rdf:resource="http://creativecommons.org/ns#Attribution" />
        <cc:permits
           rdf:resource="http://creativecommons.org/ns#DerivativeWorks" />
        <cc:requires
           rdf:resource="http://creativecommons.org/ns#ShareAlike" />
      </cc:License>
    </rdf:RDF>
  </metadata>
  <g
     inkscape:label="Layer 1"
     inkscape:groupmode="layer"
     id="layer1"
     transform="translate(2.2678668,-24.857133)">
    <g
       transform="translate(-42.152251,-30.853225)"
       id="g849"
       inkscape:export-xdpi="96"
       inkscape:export-ydpi="96">
      <circle
         r="105.83334"
         cy="161.5437"
         cx="145.71773"
         id="path841"
         style="opacity:1;fill:#fffcfc;fill-opacity:1;fill-rule:nonzero;stroke:none;stroke-width:4.63017702;stroke-linecap:butt;stroke-linejoin:round;stroke-miterlimit:4;stroke-dasharray:4.63017738, 9.26035476;stroke-dashoffset:0;stroke-opacity:1;paint-order:markers stroke fill" />
      <g
         inkscape:export-ydpi="96"
         inkscape:export-xdpi="96"
         transform="matrix(1.52,0,0,1.52,-8.8292047,20.921088)"
         id="g830">
        <circle
           style="opacity:1;fill:#111111;fill-opacity:1;fill-rule:nonzero;stroke:none;stroke-width:2.63507795;stroke-linecap:butt;stroke-linejoin:round;stroke-miterlimit:4;stroke-dasharray:2.63507797, 5.27015594;stroke-dashoffset:0;stroke-opacity:0.6;paint-order:markers stroke fill"
           id="path4737"
           cx="101.67561"
           cy="92.514877"
           r="66.145836" />
        <g
           aria-label="B²"
           style="font-style:normal;font-variant:normal;font-weight:normal;font-stretch:normal;font-size:98.77777863px;line-height:1.25;font-family:Oswald;-inkscape-font-specification:'Oswald, Normal';font-variant-ligatures:normal;font-variant-caps:normal;font-variant-numeric:normal;font-feature-settings:normal;text-align:center;letter-spacing:0px;word-spacing:0px;writing-mode:lr-tb;text-anchor:middle;fill:#ffffff;fill-opacity:1;stroke:none;stroke-width:0.2414766"
           id="text4741"
           transform="translate(4.2333584,6.319336e-6)">
          <path
             d="m 75.582459,86.341259 h 6.173611 q 15.434028,0 15.434028,-15.434028 0,-2.556261 -0.627007,-4.485514 Q 95.936083,64.444232 95.067919,63.141986 94.199755,61.83974 92.415196,60.971576 90.678868,60.05518 89.231928,59.572867 87.784987,59.090553 85.084033,58.897628 82.431309,58.656471 80.64675,58.60824 78.86219,58.56001 75.582459,58.56001 Z m 0,40.128471 h 6.173611 q 8.006402,0 11.720215,-3.66558 3.713813,-3.71381 3.713813,-11.76845 0,-8.05463 -3.713813,-11.720211 -3.713813,-3.713813 -11.720215,-3.713813 h -6.173611 z m -12.347222,9.26042 V 49.299592 H 81.75607 q 5.980686,0 10.707357,1.254015 4.726671,1.254015 8.247563,3.810275 3.56911,2.556261 5.45014,6.752388 1.92925,4.196126 1.92925,9.790961 0,8.102865 -3.42442,12.347222 -3.42443,4.196127 -10.562667,6.173612 7.717017,2.55626 11.575517,7.524088 3.85851,4.919597 3.85851,14.083547 0,11.43083 -6.65592,18.08676 -6.607697,6.60769 -18.038524,6.60769 z"
             style="font-style:normal;font-variant:normal;font-weight:normal;font-stretch:normal;font-size:98.77777863px;font-family:Oswald;-inkscape-font-specification:'Oswald, Normal';font-variant-ligatures:normal;font-variant-caps:normal;font-variant-numeric:normal;font-feature-settings:normal;text-align:center;writing-mode:lr-tb;text-anchor:middle;fill:#ffffff;fill-opacity:1;stroke-width:0.2414766"
             id="path817"
             inkscape:connector-curvature="0" />
          <path
             d="m 115.42154,92.603066 v -6.17361 l 9.26042,-12.347225 c 0.22508,-0.289388 0.65916,-0.852087 1.30225,-1.688097 0.67524,-0.868164 1.15755,-1.495171 1.44694,-1.881022 0.32154,-0.418005 0.73954,-1.045013 1.25401,-1.881023 0.54662,-0.836009 0.93247,-1.559479 1.15755,-2.17041 0.25723,-0.61093 0.48231,-1.3344 0.67524,-2.17041 0.22508,-0.868164 0.33762,-1.720251 0.33762,-2.556261 0,-0.675238 -0.0161,-1.189706 -0.0482,-1.543403 0,-0.353696 -0.0322,-0.819932 -0.0965,-1.398708 -0.0321,-0.578776 -0.11252,-1.012858 -0.24116,-1.302246 -0.12861,-0.321542 -0.30546,-0.643085 -0.53054,-0.964627 -0.22508,-0.353696 -0.51447,-0.594853 -0.86817,-0.72347 -0.35369,-0.160771 -0.78777,-0.241157 -1.30224,-0.241157 -0.51447,0 -0.94855,0.08039 -1.30225,0.241157 -0.35369,0.128617 -0.64308,0.369774 -0.86816,0.72347 -0.22508,0.321542 -0.40193,0.643085 -0.53055,0.964627 -0.12861,0.289388 -0.22508,0.72347 -0.28939,1.302246 -0.0321,0.578776 -0.0643,1.045012 -0.0965,1.398708 v 1.543403 h -9.26042 c 0,-3.890661 1.06109,-6.913158 3.18327,-9.067491 2.15433,-2.186487 5.20899,-3.279731 9.16396,-3.279731 3.95497,0 6.99354,1.093244 9.11572,3.279731 2.15433,2.154333 3.2315,5.17683 3.2315,9.067491 0,2.28295 -0.61093,4.67844 -1.83279,7.18647 -1.18971,2.475875 -2.49195,4.565899 -3.90674,6.270073 -1.41479,1.704174 -3.18327,3.729891 -5.30545,6.077149 -2.09002,2.315104 -3.55304,4.035356 -4.38905,5.160756 h 15.43403 v 6.17361 z"
             style="font-style:normal;font-variant:normal;font-weight:normal;font-stretch:normal;font-size:98.77777863px;font-family:Oswald;-inkscape-font-specification:'Oswald, Normal';font-variant-ligatures:normal;font-variant-caps:normal;font-variant-numeric:normal;font-feature-settings:normal;text-align:center;writing-mode:lr-tb;text-anchor:middle;fill:#ffffff;fill-opacity:1;stroke-width:0.2414766"
             id="path819"
             inkscape:connector-curvature="0"
             sodipodi:nodetypes="ccccccccscccccsccccccccscscsccccc" />
        </g>
      </g>
    </g>
  </g>
</svg>
